<svg baseProfile="tiny" xmlns="http://www.w3.org/2000/svg" viewBox="0 0 295.3 108.7"><path d="M200.9 50c-2.7-2.8-6.3-3.7-9.2-3.7-9 .1-13.9 8.3-13.9 16.1 0 10.4 7.1 16.1 13.7 16.1 5.5 0 8.3-2.8 9.5-4.1v3.4h9.3V32.1h-9.4V50zm-6.7 19.8c-4.1 0-7.2-3.2-7.2-7.5s3.1-7.5 7.2-7.5c4 0 7.1 3.2 7.1 7.5s-3 7.5-7.1 7.5zM101.4 62.9c-2-.9-4.2-.1-5.1 2.2-2.1 5-9.2 8.2-13.7 4.9 4.3-2.5 8.4-5.9 10.8-11.1 2.3-5.3.3-16.7-10.2-14.9-5.7 1.1-14.8 8.4-12.4 21.6-7.6 1.6-6.3-9.3-3-24.4.9-4.3 1.4-7.6-1.8-10.1-2.8-2.2-5.9-.6-8.2 1.4-5 4.5-11.4 12.6-14.7 17 1.4-8.4 3.7-19.1 2-21.9-1.7-2.8-4.9-2.8-7.8-.9-6.5 5.2-18 21.2-18 21.2s.5-1.8.7-3.9c.2-2-.8-4.1-3.1-4.6-2.1-.5-4.7.6-5.2 3C9.1 54.8 7 61.3 4.4 73.9c-.4 2.2.6 4.7 3 5.2 1.1.2 2.3.2 3.3-.4.9-.6 1.5-1.5 1.8-2.2 4.7-12 16.3-28.5 24.1-37.3.2-.2.6-.1.5.3-1 5.2-3.5 18-3.6 19.8s.1 4 2.4 4.9c2.3.8 4.1.4 6.7-1.8 2.6-2.2 11.8-13.6 14.9-17.3.3-.3.7-.3.5.4-6.2 20.5 1.3 32 16.2 27.9 10.3 11.6 25.3 3.9 28.9-5.3.7-2.1.3-4.4-1.7-5.2zM85 51.8c2.8 1.4.9 8.2-6.7 11.6-.4-7 4-13 6.7-11.6zM216 48.1h9.8v29.7H216zM163.6 46.5c-4.6 0-6.7 1.4-9.1 4.2v-3.5h-9.4V78h9.5V61c0-4 1.9-6.4 5.1-6.4 3.2 0 5 2.1 5 6v17.5h9.7v-20c-.1-7.2-4.2-11.6-10.8-11.6zM130.1 62.3c0 4.3-2.5 7.3-6.6 7.3-3.7 0-6.5-2.6-6.5-7.3V32h-10v30c0 11.3 7 16.5 16.5 16.5C136 78.5 140 70.1 140 62V32h-9.9v30.3z"/><circle cx="220.9" cy="37.8" r="5.8"/><path d="M246.3 46.2c-8.8 0-16.3 6.6-16.3 16.2 0 10.6 7.8 16.4 16.2 16.4 9.3 0 13.6-5.4 15.5-9.8h-10.1c-1 1.1-2.6 2.2-5.3 2.2-3.6 0-6.8-2.2-7.5-5.9h23.7v-2.6c.1-9.7-6.9-16.5-16.2-16.5zm-7.1 12.5c1.4-3.7 4.5-5 7.3-5 4 0 6.2 2.1 7.1 5h-14.4zM275.5 57.1c-.7-.3-.9-.9-.9-1.3 0-1.1.8-2.4 3.2-2.4 2.8 0 3.3 1.6 3.4 2.4h9.5c-.2-2.9-1.4-5.2-3.5-6.9-2.3-1.8-5.5-2.7-9.4-2.7-5.2 0-9.6 1.7-11.7 5.9-.6 1.2-.8 2.4-.8 3.8 0 1.7.3 3.1.9 4.1 1.2 2 2.8 3.3 5.5 4.3 5.1 1.7 10 1.3 10 3.8 0 1.9-1.6 2.5-3.5 2.5-1.1 0-2.9-.2-3.4-1.8H265c.7 5.9 4.2 7.7 7.1 8.7 1.7.5 3.7.8 6.1.8 2.2 0 4.1-.3 5.7-.9 3.3-1.2 7.3-3.9 7.3-9.6 0-1.7-.3-3-.8-4.1-.8-1.8-2.5-3.3-4.7-4.1-2.7-.9-8-1.5-10.2-2.5z"/></svg>